<mxfile host="app.diagrams.net" agent="Mozilla/5.0 (Windows NT 10.0; Win64; x64) AppleWebKit/537.36 (KHTML, like Gecko) Chrome/128.0.0.0 Safari/537.36" version="24.7.13">
  <diagram name="Page-1" id="58UBv90gL8MjTvQ0BdN7">
    <mxGraphModel dx="1032" dy="501" grid="1" gridSize="10" guides="1" tooltips="1" connect="1" arrows="1" fold="1" page="1" pageScale="1" pageWidth="827" pageHeight="1169" math="0" shadow="0">
      <root>
        <mxCell id="0" />
        <mxCell id="1" parent="0" />
        <mxCell id="U_juzYRr8GewKVmxgIOD-14" style="edgeStyle=orthogonalEdgeStyle;rounded=0;orthogonalLoop=1;jettySize=auto;html=1;exitX=0.5;exitY=1;exitDx=0;exitDy=0;" parent="1" source="U_juzYRr8GewKVmxgIOD-2" target="U_juzYRr8GewKVmxgIOD-3" edge="1">
          <mxGeometry relative="1" as="geometry" />
        </mxCell>
        <mxCell id="U_juzYRr8GewKVmxgIOD-2" value="&lt;font style=&quot;font-size: 16px;&quot;&gt;&lt;b&gt;Satellite Image&lt;/b&gt;&lt;/font&gt;" style="rounded=0;whiteSpace=wrap;html=1;fillColor=#f8cecc;strokeColor=#b85450;" parent="1" vertex="1">
          <mxGeometry x="240" y="180" width="360" height="60" as="geometry" />
        </mxCell>
        <mxCell id="U_juzYRr8GewKVmxgIOD-15" style="edgeStyle=orthogonalEdgeStyle;rounded=0;orthogonalLoop=1;jettySize=auto;html=1;exitX=0.5;exitY=1;exitDx=0;exitDy=0;" parent="1" source="U_juzYRr8GewKVmxgIOD-3" target="U_juzYRr8GewKVmxgIOD-4" edge="1">
          <mxGeometry relative="1" as="geometry" />
        </mxCell>
        <mxCell id="U_juzYRr8GewKVmxgIOD-3" value="&lt;font style=&quot;font-size: 16px;&quot;&gt;&lt;b&gt;Image pre-processing&lt;/b&gt;&lt;/font&gt;" style="rounded=0;whiteSpace=wrap;html=1;fillColor=#dae8fc;strokeColor=#6c8ebf;gradientColor=#7ea6e0;" parent="1" vertex="1">
          <mxGeometry x="240" y="270" width="360" height="60" as="geometry" />
        </mxCell>
        <mxCell id="U_juzYRr8GewKVmxgIOD-4" value="&lt;font style=&quot;font-size: 16px;&quot;&gt;&lt;b&gt;Image Analysis&lt;/b&gt;&lt;/font&gt;" style="rounded=0;whiteSpace=wrap;html=1;fillColor=#dae8fc;strokeColor=#6c8ebf;gradientColor=#7ea6e0;" parent="1" vertex="1">
          <mxGeometry x="240" y="370" width="360" height="70" as="geometry" />
        </mxCell>
        <mxCell id="U_juzYRr8GewKVmxgIOD-5" value="&lt;span style=&quot;font-size: 16px;&quot;&gt;&lt;b&gt;NDOMI&lt;/b&gt;&lt;/span&gt;" style="rounded=0;whiteSpace=wrap;html=1;fillColor=#f8cecc;strokeColor=#b85450;" parent="1" vertex="1">
          <mxGeometry x="260" y="560" width="100" height="50" as="geometry" />
        </mxCell>
        <mxCell id="b1wOySysg9WmNA8sPAV4-6" style="edgeStyle=orthogonalEdgeStyle;rounded=0;orthogonalLoop=1;jettySize=auto;html=1;exitX=0.5;exitY=1;exitDx=0;exitDy=0;entryX=0;entryY=0.5;entryDx=0;entryDy=0;" edge="1" parent="1" source="U_juzYRr8GewKVmxgIOD-7" target="b1wOySysg9WmNA8sPAV4-1">
          <mxGeometry relative="1" as="geometry" />
        </mxCell>
        <mxCell id="U_juzYRr8GewKVmxgIOD-7" value="&lt;font style=&quot;font-size: 16px;&quot;&gt;&lt;b&gt;NDVI&lt;/b&gt;&lt;/font&gt;" style="rounded=0;whiteSpace=wrap;html=1;fillColor=#f8cecc;strokeColor=#b85450;" parent="1" vertex="1">
          <mxGeometry x="130" y="560" width="100" height="50" as="geometry" />
        </mxCell>
        <mxCell id="U_juzYRr8GewKVmxgIOD-8" value="&lt;font style=&quot;font-size: 16px;&quot;&gt;&lt;b&gt;GSI&lt;/b&gt;&lt;/font&gt;" style="rounded=0;whiteSpace=wrap;html=1;fillColor=#f8cecc;strokeColor=#b85450;" parent="1" vertex="1">
          <mxGeometry x="501.81" y="560" width="90" height="50" as="geometry" />
        </mxCell>
        <mxCell id="U_juzYRr8GewKVmxgIOD-9" value="&lt;font style=&quot;font-size: 16px;&quot;&gt;&lt;b&gt;MBSI&lt;/b&gt;&lt;/font&gt;" style="rounded=0;whiteSpace=wrap;html=1;fillColor=#f8cecc;strokeColor=#b85450;" parent="1" vertex="1">
          <mxGeometry x="380" y="560" width="100" height="50" as="geometry" />
        </mxCell>
        <mxCell id="b1wOySysg9WmNA8sPAV4-2" style="edgeStyle=orthogonalEdgeStyle;rounded=0;orthogonalLoop=1;jettySize=auto;html=1;exitX=0.5;exitY=1;exitDx=0;exitDy=0;entryX=1;entryY=0.5;entryDx=0;entryDy=0;" edge="1" parent="1" source="U_juzYRr8GewKVmxgIOD-10" target="b1wOySysg9WmNA8sPAV4-1">
          <mxGeometry relative="1" as="geometry">
            <Array as="points">
              <mxPoint x="668" y="690" />
            </Array>
          </mxGeometry>
        </mxCell>
        <mxCell id="U_juzYRr8GewKVmxgIOD-10" value="&lt;font style=&quot;font-size: 16px;&quot;&gt;&lt;b&gt;NDISI&lt;/b&gt;&lt;/font&gt;" style="rounded=0;whiteSpace=wrap;html=1;fillColor=#f8cecc;strokeColor=#b85450;" parent="1" vertex="1">
          <mxGeometry x="622.75" y="560" width="90" height="50" as="geometry" />
        </mxCell>
        <mxCell id="b1wOySysg9WmNA8sPAV4-17" style="edgeStyle=orthogonalEdgeStyle;rounded=0;orthogonalLoop=1;jettySize=auto;html=1;exitX=0.5;exitY=1;exitDx=0;exitDy=0;" edge="1" parent="1" source="U_juzYRr8GewKVmxgIOD-11" target="U_juzYRr8GewKVmxgIOD-12">
          <mxGeometry relative="1" as="geometry" />
        </mxCell>
        <mxCell id="U_juzYRr8GewKVmxgIOD-11" value="&lt;span style=&quot;font-size: 16px;&quot;&gt;&lt;b&gt;Spatial Analysis&lt;/b&gt;&lt;/span&gt;" style="rounded=0;whiteSpace=wrap;html=1;fillColor=#ffcd28;strokeColor=#d79b00;gradientColor=#ffa500;" parent="1" vertex="1">
          <mxGeometry x="300" y="770" width="260" height="70" as="geometry" />
        </mxCell>
        <mxCell id="U_juzYRr8GewKVmxgIOD-12" value="&lt;font style=&quot;font-size: 16px;&quot;&gt;&lt;b&gt;Soil degradation Map&lt;/b&gt;&lt;/font&gt;" style="rounded=0;whiteSpace=wrap;html=1;fillColor=#ffcd28;strokeColor=#d79b00;gradientColor=#ffa500;" parent="1" vertex="1">
          <mxGeometry x="300" y="880" width="260" height="70" as="geometry" />
        </mxCell>
        <mxCell id="U_juzYRr8GewKVmxgIOD-16" value="" style="strokeWidth=2;html=1;shape=mxgraph.flowchart.annotation_2;align=left;labelPosition=right;pointerEvents=1;rotation=90;" parent="1" vertex="1">
          <mxGeometry x="374.95" y="246.55" width="120.72" height="507.6" as="geometry" />
        </mxCell>
        <mxCell id="b1wOySysg9WmNA8sPAV4-1" value="&lt;font style=&quot;font-size: 16px;&quot;&gt;&lt;b&gt;Correlation Analysis&lt;/b&gt;&lt;/font&gt;" style="rounded=0;whiteSpace=wrap;html=1;fillColor=#f8cecc;strokeColor=#b85450;" vertex="1" parent="1">
          <mxGeometry x="265" y="660" width="310" height="60" as="geometry" />
        </mxCell>
        <mxCell id="b1wOySysg9WmNA8sPAV4-3" style="edgeStyle=orthogonalEdgeStyle;rounded=0;orthogonalLoop=1;jettySize=auto;html=1;exitX=0.5;exitY=1;exitDx=0;exitDy=0;entryX=0.919;entryY=0;entryDx=0;entryDy=0;entryPerimeter=0;" edge="1" parent="1" source="U_juzYRr8GewKVmxgIOD-8" target="b1wOySysg9WmNA8sPAV4-1">
          <mxGeometry relative="1" as="geometry" />
        </mxCell>
        <mxCell id="b1wOySysg9WmNA8sPAV4-4" style="edgeStyle=orthogonalEdgeStyle;rounded=0;orthogonalLoop=1;jettySize=auto;html=1;exitX=0.5;exitY=1;exitDx=0;exitDy=0;entryX=0.534;entryY=-0.011;entryDx=0;entryDy=0;entryPerimeter=0;" edge="1" parent="1" source="U_juzYRr8GewKVmxgIOD-9" target="b1wOySysg9WmNA8sPAV4-1">
          <mxGeometry relative="1" as="geometry" />
        </mxCell>
        <mxCell id="b1wOySysg9WmNA8sPAV4-5" style="edgeStyle=orthogonalEdgeStyle;rounded=0;orthogonalLoop=1;jettySize=auto;html=1;exitX=0.5;exitY=1;exitDx=0;exitDy=0;" edge="1" parent="1" source="U_juzYRr8GewKVmxgIOD-5">
          <mxGeometry relative="1" as="geometry">
            <mxPoint x="310" y="660" as="targetPoint" />
          </mxGeometry>
        </mxCell>
        <mxCell id="b1wOySysg9WmNA8sPAV4-13" value="" style="endArrow=classic;html=1;rounded=0;" edge="1" parent="1">
          <mxGeometry width="50" height="50" relative="1" as="geometry">
            <mxPoint x="540" y="500" as="sourcePoint" />
            <mxPoint x="540" y="560" as="targetPoint" />
            <Array as="points">
              <mxPoint x="540" y="520" />
            </Array>
          </mxGeometry>
        </mxCell>
        <mxCell id="b1wOySysg9WmNA8sPAV4-14" value="" style="endArrow=classic;html=1;rounded=0;" edge="1" parent="1">
          <mxGeometry width="50" height="50" relative="1" as="geometry">
            <mxPoint x="414" y="500" as="sourcePoint" />
            <mxPoint x="414" y="560" as="targetPoint" />
            <Array as="points">
              <mxPoint x="414" y="520" />
            </Array>
          </mxGeometry>
        </mxCell>
        <mxCell id="b1wOySysg9WmNA8sPAV4-15" value="" style="endArrow=classic;html=1;rounded=0;" edge="1" parent="1">
          <mxGeometry width="50" height="50" relative="1" as="geometry">
            <mxPoint x="300" y="500" as="sourcePoint" />
            <mxPoint x="300" y="560" as="targetPoint" />
            <Array as="points">
              <mxPoint x="300" y="520" />
            </Array>
          </mxGeometry>
        </mxCell>
        <mxCell id="b1wOySysg9WmNA8sPAV4-16" style="edgeStyle=orthogonalEdgeStyle;rounded=0;orthogonalLoop=1;jettySize=auto;html=1;exitX=0.5;exitY=1;exitDx=0;exitDy=0;entryX=0.462;entryY=0;entryDx=0;entryDy=0;entryPerimeter=0;" edge="1" parent="1" source="b1wOySysg9WmNA8sPAV4-1" target="U_juzYRr8GewKVmxgIOD-11">
          <mxGeometry relative="1" as="geometry" />
        </mxCell>
        <mxCell id="b1wOySysg9WmNA8sPAV4-20" style="edgeStyle=orthogonalEdgeStyle;rounded=0;orthogonalLoop=1;jettySize=auto;html=1;exitX=1;exitY=0.5;exitDx=0;exitDy=0;" edge="1" parent="1" source="b1wOySysg9WmNA8sPAV4-18" target="U_juzYRr8GewKVmxgIOD-11">
          <mxGeometry relative="1" as="geometry" />
        </mxCell>
        <mxCell id="b1wOySysg9WmNA8sPAV4-18" value="&lt;font style=&quot;font-size: 16px;&quot;&gt;&lt;b&gt;Soil Organic Matter&amp;nbsp;&lt;/b&gt;&lt;/font&gt;" style="rounded=0;whiteSpace=wrap;html=1;fillColor=#f8cecc;strokeColor=#b85450;" vertex="1" parent="1">
          <mxGeometry x="130" y="765" width="120" height="80" as="geometry" />
        </mxCell>
      </root>
    </mxGraphModel>
  </diagram>
</mxfile>
